<?xml version="1.0" encoding="UTF-8" standalone="no"?>
<!-- Created with Inkscape (http://www.inkscape.org/) -->

<svg
   width="135.44147mm"
   height="163.85165mm"
   viewBox="0 0 135.44148 163.85165"
   version="1.1"
   id="svg5"
   xml:space="preserve"
   xmlns="http://www.w3.org/2000/svg"
   xmlns:svg="http://www.w3.org/2000/svg"><defs
     id="defs2" /><g
     id="layer1"
     transform="translate(-32.469076,-20.429801)"><path
       style="fill:#80a2e4;fill-opacity:1;stroke:none;stroke-width:0.50138"
       d="m 95.956329,184.12715 c -2.378188,-0.4912 -28.734703,-6.12873 -29.027814,-6.20892 -0.280272,-0.0767 2.213491,-0.99349 11.934049,-4.38749 l 12.288361,-4.29057 8.974915,-1.39602 c 4.93619,-0.76781 9.08091,-1.39571 9.21046,-1.39532 0.12957,3.7e-4 8.42049,1.94661 18.42427,4.32493 l 18.18872,4.32423 0.81692,1.83398 c 0.44931,1.00869 0.82903,1.9935 0.84381,2.18846 l 0.0269,0.35447 -9.64822,2.22929 -9.64822,2.22928 -15.19717,0.1749 c -8.35844,0.0962 -15.478731,0.17408 -15.822861,0.17309 -0.34414,-9.9e-4 -0.95798,-0.0704 -1.36409,-0.15431 z"
       id="path6822" /><path
       style="fill:#000000;fill-opacity:0;stroke:#5881d8;stroke-width:10;stroke-dasharray:none;stroke-opacity:1"
       id="path2863"
       d="m -100.1898,-30.033001 a 62.723736,62.723736 0 0 1 -54.32034,-31.361867 62.723736,62.723736 0 0 1 0,-62.723732 62.723736,62.723736 0 0 1 54.32034,-31.36187"
       transform="scale(-1)" /><path
       style="fill:none;fill-opacity:1;stroke:#63b132;stroke-width:10;stroke-dasharray:none;stroke-opacity:1"
       id="path2863-4"
       d="m 100.1898,155.48047 a 62.723736,62.723736 0 0 1 -54.320352,-31.36186 62.723736,62.723736 0 0 1 0,-62.723741 62.723736,62.723736 0 0 1 54.320352,-31.361868" /><path
       style="fill:#90b4fe;fill-opacity:1;stroke:none;stroke-width:1.49088"
       d="m 87.855035,163.83186 c -2.592283,-3.98444 -31.321569,-49.71472 -31.641068,-50.36515 -0.305504,-0.62194 2.412762,-8.05895 13.00842,-35.590258 l 13.394625,-34.804028 9.782893,-11.32417 c 5.380592,-6.228293 9.898445,-11.321597 10.039665,-11.318451 0.14123,0.0032 9.17854,15.790379 20.08292,35.082746 l 19.82617,35.07704 0.89047,14.876821 c 0.48976,8.18226 0.90366,16.17075 0.91977,17.75221 l 0.0293,2.87539 -10.51681,18.08341 -10.5168,18.08341 -16.56531,1.4187 c -9.110917,0.78028 -16.872223,1.41211 -17.247343,1.40406 -0.375121,-0.008 -1.044223,-0.57132 -1.486892,-1.25173 z"
       id="path2431" /><path
       style="fill:#ffffff;fill-opacity:1;stroke-width:1"
       d="M 89.572546,49.726145 67.88134,111.54608 74.750222,118.41496 95.718388,45.026383 Z"
       id="path2487" /></g></svg>
